<?xml version="1.0" encoding="utf-8"?>
<svg version="1.1" xmlns:xlink="http://www.w3.org/1999/xlink" width="119px" height="111px" xmlns="http://www.w3.org/2000/svg">
  <defs>
    <filter x="48px" y="213px" width="119px" height="111px" filterUnits="userSpaceOnUse" id="filter17">
      <feOffset dx="0" dy="0" in="SourceAlpha" result="shadowOffsetInner" />
      <feGaussianBlur stdDeviation="5" in="shadowOffsetInner" result="shadowGaussian" />
      <feComposite in2="shadowGaussian" operator="atop" in="SourceAlpha" result="shadowComposite" />
      <feColorMatrix type="matrix" values="0 0 0 0 0  0 0 0 0 0  0 0 0 0 0  0 0 0 0.313725490196078 0  " in="shadowComposite" />
    </filter>
    <g id="widget18">
      <path d="M 56.0320155902005 76.48046875  C 56.3811247216036 76.1341145833333  56.5556792873051 75.7057291666667  56 75.1953125  L 56 64.8046875  C 56.5556792873051 64.2942708333333  56.3811247216036 63.8658854166667  56.0320155902005 63.51953125  C 55.6829064587973 63.1731770833333  55.2694877505568 63  54.7917594654788 63  L 44.2082405345212 63  C 43.7305122494432 63  43.3170935412027 63.1731770833333  42.9679844097996 63.51953125  C 42.6188752783964 63.8658854166667  42.4443207126949 64.2942708333333  43 64.8046875  L 43 75.1953125  C 42.4443207126949 75.7057291666667  42.6188752783964 76.1341145833333  42.9679844097996 76.48046875  C 43.3170935412027 76.8268229166667  43.7305122494432 77  44.2082405345212 77  L 54.7917594654788 77  C 55.2694877505568 77  55.6829064587973 76.8268229166667  56.0320155902005 76.48046875  Z M 55.8666481069042 55.64453125  C 56.2157572383074 55.4075520833333  56.4086859688196 55.1067708333333  56.445434298441 54.7421875  L 57.4376391982183 29.640625  C 57.4376391982183 29.203125  57.2538975501114 28.8567708333333  56.8864142538975 28.6015625  C 56.4086859688196 28.2005208333333  55.967706013363 28  55.5634743875278 28  L 43.4365256124722 28  C 43.032293986637 28  42.5913140311804 28.2005208333333  42.1135857461025 28.6015625  C 41.7461024498886 28.8567708333333  41.5623608017817 29.2395833333333  41.5623608017817 29.75  L 42.4994432071269 54.7421875  C 42.4994432071269 55.1067708333333  42.6831848552339 55.4075520833333  43.0506681514477 55.64453125  C 43.4181514476615 55.8815104166667  43.859131403118 56  44.3736080178174 56  L 54.5712694877506 56  C 55.0857461024499 56  55.5175389755011 55.8815104166667  55.8666481069042 55.64453125  Z M 53.0829621380846 0.984375000000002  C 54.1854120267261 1.640625  55.0489977728285 2.53385416666666  55.673719376392 3.6640625  L 98.0077951002227 80.6640625  C 99.2939866369711 82.9609375  99.2572383073497 85.2578125  97.8975501113586 87.5546875  C 97.2728285077951 88.6119791666667  96.418429844098 89.4505208333333  95.3343541202673 90.0703125  C 94.2502783964365 90.6901041666667  93.0835189309577 91  91.8340757238307 91  L 7.16592427616927 91  C 5.91648106904232 91  4.74972160356347 90.6901041666667  3.66564587973274 90.0703125  C 2.581570155902 89.4505208333333  1.7271714922049 88.6119791666667  1.10244988864143 87.5546875  C -0.257238307349666 85.2578125  -0.293986636971047 82.9609375  0.992204899777283 80.6640625  L 43.326280623608 3.6640625  C 43.9510022271715 2.53385416666666  44.814587973274 1.640625  45.9170378619154 0.984375000000002  C 47.0194877505568 0.328125000000004  48.2138084632517 0  49.5 0  C 50.7861915367483 0  51.9805122494432 0.328125000000004  53.0829621380846 0.984375000000002  Z " fill-rule="nonzero" fill="#000000" stroke="none" transform="matrix(1 0 0 1 58 223 )" />
    </g>
  </defs>
  <g transform="matrix(1 0 0 1 -48 -213 )">
    <use xlink:href="#widget18" filter="url(#filter17)" />
    <use xlink:href="#widget18" />
  </g>
</svg>